<svg width="256" height="256" viewBox="0 0 256 256" fill="none" xmlns="http://www.w3.org/2000/svg">
  <rect width="256" height="256" rx="54" fill="#101820"/>
  <path d="M0 74C44 40 87 24 130 28C181 33 218 62 256 110V256H0V74Z" fill="#16343A"/>
  <path d="M256 0V66C220 55 188 58 160 77C128 99 110 134 86 162C62 190 34 203 0 202V0H256Z" fill="#26484D"/>
  <path d="M194 57C217 66 236 81 256 103V148C236 123 218 108 197 100C164 87 136 100 112 133C96 155 83 172 66 184C47 198 25 204 0 202V166C29 169 50 160 68 140C82 124 94 102 111 82C133 55 160 44 194 57Z" fill="#77DAD1"/>
  <circle cx="76" cy="76" r="23" fill="#F35B68"/>
  <circle cx="76" cy="76" r="10" fill="#FFE8E9"/>
  <path d="M105 82C105 71 117 65 126 71L180 104C189 110 189 124 180 130L126 163C117 169 105 163 105 152V82Z" fill="#F4C173"/>
  <path d="M46 198H92V212H46V198ZM46 181H62V198H46V181ZM76 164H92V198H76V164ZM46 150H92V164H46V150Z" fill="#F7FBF9"/>
  <path d="M113 150H129V212H113V150ZM129 178H144V194H129V178ZM146 150H164V168H146V150ZM146 194H164V212H146V194Z" fill="#F7FBF9"/>
</svg>
